<?xml version="1.0" encoding="utf-8"?>
<!-- Generator: Adobe Illustrator 27.5.0, SVG Export Plug-In . SVG Version: 6.00 Build 0)  -->
<svg version="1.1" xmlns="http://www.w3.org/2000/svg" xmlns:xlink="http://www.w3.org/1999/xlink" x="0px" y="0px"
	 viewBox="0 0 500 500" style="enable-background:new 0 0 500 500;" xml:space="preserve">
<g id="Background_Simple">
	<g>
		<path style="fill:#92E3A9;" d="M412.944,103.671c-16.602-16.235-35.618-29.73-55.835-39.183
			c-30.784-14.394-64.692-21.332-98.602-21.744c-99.104-1.205-106.649,115.219-137.119,131.406
			c-30.471,16.188-85.699,18.092-87.604,82.842c-1.198,40.726,8.309,82.604,35.044,114.335
			c24.486,29.062,60.459,43.792,95.898,54.674c39.798,12.22,82.005,24.207,123.867,15.963
			c42.961-8.461,73.143-42.478,108.424-65.465c22.214-14.473,42.152-29.715,55.867-52.939c1.638-2.774,3.177-5.609,4.638-8.481
			c18.361-36.089,21.962-77.716,11.835-116.769C460.27,163.266,439.758,129.893,412.944,103.671z"/>
		<path style="opacity:0.7;fill:#FFFFFF;" d="M412.944,103.671c-16.602-16.235-35.618-29.73-55.835-39.183
			c-30.784-14.394-64.692-21.332-98.602-21.744c-99.104-1.205-106.649,115.219-137.119,131.406
			c-30.471,16.188-85.699,18.092-87.604,82.842c-1.198,40.726,8.309,82.604,35.044,114.335
			c24.486,29.062,60.459,43.792,95.898,54.674c39.798,12.22,82.005,24.207,123.867,15.963
			c42.961-8.461,73.143-42.478,108.424-65.465c22.214-14.473,42.152-29.715,55.867-52.939c1.638-2.774,3.177-5.609,4.638-8.481
			c18.361-36.089,21.962-77.716,11.835-116.769C460.27,163.266,439.758,129.893,412.944,103.671z"/>
	</g>
</g>
<g id="Floor">
	
		<line style="fill:none;stroke:#263238;stroke-linecap:round;stroke-linejoin:round;stroke-miterlimit:10;" x1="15.383" y1="463.204" x2="478.815" y2="463.204"/>
</g>
<g id="Plants">
	<g>
		<path style="fill:#263238;" d="M411.631,392.562c2.226,0.973,7.673,0.85,7.677,0.85c0.056-0.001-1.171-3.565-1.274-3.781
			c-1.196-2.5-4.974-6.627-8.049-6.212c-2.215,0.299-3.447,2.516-2.947,4.602C407.549,390.151,409.734,391.733,411.631,392.562z"/>
		<path style="fill:#263238;" d="M413.511,408.338c2.31,0.337,7.17-1.073,7.557-1.187c0.767,2.721,1.775,5.451,2.948,8.157
			c0.668,1.548,1.39,3.086,2.133,4.62c-0.443-0.65-0.845-1.227-0.909-1.302c-1.813-2.096-6.548-5.078-9.404-3.865
			c-2.058,0.874-2.66,3.337-1.627,5.217c1.055,1.92,3.581,2.869,5.629,3.167c2.078,0.303,6.246-0.816,7.345-1.126
			c0.291,0.585,0.575,1.173,0.869,1.757c1.408,2.802,2.824,5.593,4.13,8.373c0.461,0.98,0.878,1.961,1.3,2.941
			c-0.394-0.577-0.731-1.059-0.79-1.127c-1.813-2.095-6.547-5.079-9.404-3.866c-2.057,0.874-2.66,3.337-1.627,5.217
			c1.055,1.919,3.581,2.869,5.629,3.167c1.983,0.289,5.839-0.709,7.147-1.072c0.401,1.017,0.805,2.035,1.148,3.039
			c0.219,0.691,0.477,1.341,0.658,2.046c0.194,0.695,0.386,1.383,0.576,2.064c0.318,1.326,0.654,2.692,0.932,3.993
			c0.2,0.903,0.374,1.768,0.552,2.639c-0.447-0.98-1.363-2.881-1.457-3.031c-1.474-2.346-5.702-6.011-8.709-5.245
			c-2.166,0.552-3.135,2.895-2.398,4.91c0.752,2.057,3.105,3.378,5.084,3.983c2.179,0.666,7.003,0.057,7.605-0.023
			c0.289,1.441,0.557,2.846,0.788,4.176c0.476,2.7,0.843,5.137,1.13,7.245h2.024c-0.343-2.187-0.783-4.744-1.347-7.583
			c-0.287-1.465-0.624-3.024-0.985-4.622c0.363-0.145,2.42-0.977,4.243-1.995c1.588,1.72,5.658,3.733,6.185,3.989
			c-0.554,1.361-1.106,2.681-1.647,3.917c-1.023,2.355-1.998,4.461-2.876,6.295h2.182c0.745-1.668,1.551-3.532,2.388-5.579
			c0.568-1.381,1.148-2.867,1.729-4.399c0.584,0.122,5.359,1.092,7.585,0.59c2.018-0.456,4.463-1.598,5.367-3.593
			c0.885-1.954,0.093-4.363-2.027-5.075c-2.941-0.988-7.431,2.352-9.076,4.582c-0.097,0.132-0.991,1.676-1.539,2.66
			c0.234-0.627,0.468-1.233,0.701-1.882c0.469-1.28,0.9-2.57,1.368-3.958c0.203-0.677,0.408-1.362,0.614-2.053
			c0.22-0.681,0.365-1.428,0.553-2.149c0.4-1.68,0.724-3.401,1.011-5.142c1.121,0.408,5.125,1.801,7.199,1.655
			c2.064-0.145,4.654-0.904,5.849-2.739c1.17-1.797,0.753-4.299-1.234-5.324c-2.758-1.422-7.702,1.2-9.666,3.154
			c-0.123,0.122-1.374,1.683-2.045,2.553c0.165-1.048,0.334-2.094,0.467-3.159c0.382-3.076,0.673-6.202,0.976-9.32
			c0.093-0.955,0.197-1.905,0.296-2.857c0.397,0.15,5.12,1.908,7.443,1.745c2.064-0.145,4.654-0.903,5.849-2.739
			c1.17-1.797,0.753-4.299-1.234-5.323c-2.758-1.422-7.702,1.2-9.665,3.154c-0.148,0.147-1.945,2.396-2.375,2.99
			c0.222-2.096,0.462-4.182,0.782-6.23c0.438-2.826,1.024-5.574,1.788-8.195c0.185,0.07,5.106,1.928,7.485,1.76
			c2.064-0.145,4.654-0.903,5.849-2.739c1.17-1.797,0.753-4.299-1.234-5.323c-2.758-1.422-7.701,1.2-9.665,3.154
			c-0.154,0.154-2.087,2.574-2.406,3.038c0.046-0.156,0.077-0.322,0.124-0.477c0.852-2.787,2.027-5.38,3.246-7.754
			c0.706-1.381,1.457-2.661,2.217-3.891c0.881,0.44,4.929,2.406,7.087,2.492c2.068,0.083,4.725-0.387,6.115-2.08
			c1.361-1.658,1.22-4.19-0.642-5.427c-2.585-1.717-7.787,0.347-9.953,2.073c-0.118,0.094-1.21,1.181-1.994,1.984
			c0.351-0.549,0.703-1.123,1.05-1.643c1.298-1.954,2.607-3.664,3.779-5.169c0.673-0.851,1.299-1.606,1.891-2.307
			c1.09-0.019,5.48-0.153,7.4-1.054c1.873-0.879,4.015-2.521,4.468-4.664c0.444-2.099-0.848-4.281-3.07-4.52
			c-3.085-0.332-6.751,3.895-7.878,6.427c-0.097,0.219-1.228,3.815-1.171,3.814c0,0,0.053-0.001,0.066-0.001
			c-0.584,0.663-1.202,1.381-1.862,2.178c-1.207,1.483-2.557,3.169-3.902,5.103c-1.35,1.929-2.761,4.064-4.046,6.446
			c-1.291,2.386-2.527,4.962-3.456,7.78c-0.011,0.032-0.017,0.066-0.028,0.098c0.016-0.909-0.024-3.452-0.049-3.646
			c-0.356-2.747-2.659-7.848-5.711-8.412c-2.198-0.406-4.06,1.316-4.235,3.454c-0.179,2.183,1.404,4.368,2.948,5.747
			c1.741,1.555,6.572,3.06,6.957,3.179c-0.861,2.693-1.526,5.525-2.041,8.43c-0.297,1.66-0.543,3.341-0.769,5.03
			c-0.012-0.786-0.028-1.489-0.04-1.587c-0.357-2.748-2.66-7.848-5.711-8.411c-2.199-0.406-4.06,1.316-4.235,3.453
			c-0.179,2.183,1.404,4.368,2.948,5.747c1.566,1.399,5.66,2.765,6.748,3.112c-0.08,0.649-0.167,1.296-0.244,1.945
			c-0.372,3.114-0.73,6.223-1.174,9.262c-0.156,1.071-0.349,2.12-0.538,3.17c-0.011-0.698-0.026-1.286-0.038-1.376
			c-0.356-2.748-2.659-7.848-5.71-8.412c-2.198-0.406-4.06,1.316-4.235,3.454c-0.179,2.183,1.404,4.368,2.948,5.746
			c1.494,1.335,5.262,2.63,6.553,3.049c-0.227,1.069-0.451,2.141-0.719,3.167c-0.199,0.697-0.341,1.381-0.58,2.07
			c-0.222,0.687-0.441,1.367-0.658,2.04c-0.466,1.281-0.939,2.606-1.425,3.845c-0.332,0.864-0.663,1.681-0.995,2.505
			c0.168-1.064,0.453-3.154,0.457-3.332c0.043-1.84-0.611-4.832-1.912-6.936c0.008-0.272-0.008-0.543-0.051-0.812
			c-0.34-2.118-2.33-3.691-4.49-3.115c-2.998,0.798-4.9,6.061-5.042,8.829c-0.008,0.163,0.099,1.944,0.185,3.067
			c-0.151-0.652-0.29-1.287-0.454-1.957c-0.314-1.326-0.667-2.64-1.042-4.056c-0.204-0.677-0.412-1.361-0.621-2.051
			c-0.192-0.689-0.484-1.393-0.724-2.098c-0.593-1.621-1.273-3.236-1.994-4.847c1.161-0.278,5.268-1.325,6.917-2.591
			c1.642-1.26,3.383-3.321,3.368-5.511c-0.015-2.144-1.743-4.001-3.966-3.759c-3.085,0.335-5.762,5.249-6.322,7.963
			c-0.035,0.169-0.218,2.161-0.297,3.258c-0.441-0.965-0.876-1.931-1.354-2.892c-1.379-2.777-2.861-5.544-4.327-8.312
			c-0.45-0.848-0.887-1.697-1.329-2.546c0.414-0.095,5.323-1.233,7.17-2.651c1.642-1.26,3.383-3.321,3.368-5.511
			c-0.015-2.145-1.743-4.001-3.966-3.759c-3.085,0.335-5.762,5.249-6.322,7.963c-0.042,0.205-0.301,3.072-0.331,3.804
			c-0.971-1.87-1.922-3.743-2.785-5.627c-1.193-2.599-2.221-5.214-3.029-7.821c0.193-0.044,5.322-1.209,7.214-2.661
			c1.642-1.259,3.383-3.321,3.367-5.511c-0.015-2.145-1.743-4.001-3.966-3.759c-3.085,0.335-5.762,5.249-6.322,7.963
			c-0.044,0.213-0.321,3.298-0.331,3.861c-0.048-0.155-0.114-0.311-0.16-0.466c-0.827-2.795-1.277-5.606-1.57-8.258
			c-0.173-1.541-0.252-3.024-0.297-4.468c0.977-0.119,5.439-0.713,7.286-1.831c1.77-1.072,3.727-2.929,3.953-5.108
			c0.22-2.133-1.294-4.168-3.529-4.172c-3.103-0.006-6.303,4.584-7.158,7.22c-0.047,0.143-0.358,1.653-0.569,2.755
			c-0.01-0.652-0.033-1.325-0.03-1.95c0.004-2.346,0.153-4.495,0.3-6.397c0.092-1.081,0.197-2.056,0.305-2.967
			c0.898-0.618,4.487-3.151,5.591-4.961c1.077-1.767,1.958-4.317,1.154-6.355c-0.788-1.995-3.069-3.103-5.055-2.076
			c-2.757,1.425-3.482,6.973-3.026,9.707c0.04,0.236,1.081,3.859,1.128,3.827c0,0,0.044-0.03,0.054-0.037
			c-0.121,0.875-0.241,1.815-0.351,2.844c-0.189,1.902-0.385,4.053-0.439,6.409c-0.061,2.354-0.062,4.913,0.181,7.608
			c0.24,2.702,0.63,5.533,1.409,8.396c0.009,0.032,0.022,0.065,0.031,0.097c-0.488-0.767-1.924-2.865-2.053-3.014
			c-1.813-2.095-6.547-5.078-9.404-3.866c-2.058,0.874-2.66,3.337-1.627,5.217C408.937,407.091,411.463,408.039,413.511,408.338z"/>
		<path style="fill:#263238;" d="M466.719,393.76c0.048,0.03,0.991-3.62,1.023-3.857c0.382-2.744-0.492-8.271-3.286-9.621
			c-2.013-0.973-4.263,0.197-4.996,2.212c-0.749,2.059,0.201,4.584,1.325,6.322C462.105,390.856,466.715,393.758,466.719,393.76z"/>
	</g>
	<g>
		<path style="fill:#263238;" d="M371.013,297.951c1.591,0.695,5.483,0.607,5.486,0.607c0.04-0.001-0.836-2.548-0.91-2.702
			c-0.854-1.786-3.554-4.736-5.752-4.439c-1.583,0.214-2.463,1.798-2.106,3.288C368.096,296.228,369.658,297.359,371.013,297.951z"
			/>
		<path style="fill:#263238;" d="M372.356,309.224c1.65,0.241,5.124-0.767,5.4-0.848c0.548,1.944,1.269,3.895,2.106,5.829
			c0.478,1.106,0.993,2.205,1.524,3.301c-0.317-0.464-0.604-0.877-0.65-0.93c-1.296-1.497-4.679-3.629-6.72-2.762
			c-1.47,0.624-1.901,2.384-1.163,3.728c0.754,1.372,2.559,2.05,4.022,2.263c1.485,0.216,4.463-0.583,5.248-0.805
			c0.208,0.418,0.411,0.838,0.621,1.255c1.006,2.003,2.018,3.997,2.951,5.983c0.329,0.7,0.627,1.401,0.929,2.102
			c-0.282-0.412-0.523-0.757-0.565-0.805c-1.295-1.497-4.679-3.629-6.72-2.762c-1.47,0.624-1.901,2.384-1.163,3.728
			c0.754,1.372,2.559,2.05,4.022,2.263c1.417,0.207,4.173-0.506,5.107-0.766c0.287,0.727,0.575,1.454,0.82,2.171
			c0.156,0.494,0.341,0.958,0.47,1.462c0.139,0.497,0.276,0.988,0.412,1.475c0.227,0.948,0.468,1.924,0.666,2.853
			c0.143,0.645,0.267,1.263,0.394,1.885c-0.319-0.7-0.974-2.058-1.041-2.166c-1.053-1.676-4.074-4.296-6.224-3.748
			c-1.548,0.395-2.24,2.069-1.714,3.508c0.538,1.47,2.219,2.414,3.633,2.846c1.557,0.476,5.004,0.041,5.434-0.016
			c0.207,1.03,0.398,2.034,0.563,2.984c0.34,1.93,0.603,3.671,0.808,5.177h1.446c-0.245-1.563-0.559-3.39-0.963-5.419
			c-0.205-1.047-0.446-2.161-0.704-3.303c0.259-0.103,1.729-0.698,3.032-1.426c1.135,1.229,4.043,2.667,4.419,2.85
			c-0.396,0.973-0.79,1.916-1.177,2.799c-0.731,1.682-1.427,3.188-2.055,4.498h1.559c0.533-1.192,1.108-2.524,1.707-3.987
			c0.406-0.987,0.82-2.049,1.235-3.144c0.417,0.087,3.83,0.78,5.42,0.421c1.442-0.326,3.189-1.142,3.835-2.568
			c0.632-1.396,0.066-3.118-1.448-3.627c-2.102-0.706-5.31,1.681-6.485,3.274c-0.069,0.094-0.708,1.198-1.099,1.901
			c0.167-0.448,0.335-0.881,0.501-1.345c0.335-0.914,0.643-1.836,0.978-2.828c0.145-0.484,0.291-0.973,0.439-1.467
			c0.157-0.487,0.261-1.021,0.395-1.536c0.286-1.2,0.517-2.43,0.722-3.675c0.801,0.292,3.662,1.287,5.144,1.183
			c1.475-0.104,3.326-0.646,4.18-1.957c0.836-1.284,0.538-3.072-0.882-3.804c-1.971-1.016-5.503,0.857-6.907,2.254
			c-0.088,0.087-0.982,1.202-1.461,1.825c0.118-0.749,0.239-1.496,0.334-2.258c0.273-2.198,0.481-4.432,0.698-6.66
			c0.066-0.682,0.141-1.361,0.212-2.041c0.284,0.107,3.659,1.363,5.318,1.247c1.475-0.103,3.326-0.645,4.18-1.957
			c0.836-1.284,0.538-3.072-0.882-3.804c-1.97-1.016-5.503,0.857-6.907,2.254c-0.106,0.105-1.39,1.712-1.697,2.137
			c0.159-1.498,0.33-2.989,0.559-4.452c0.313-2.019,0.732-3.983,1.278-5.856c0.132,0.05,3.648,1.377,5.348,1.258
			c1.475-0.103,3.326-0.645,4.18-1.957c0.836-1.284,0.538-3.072-0.882-3.804c-1.971-1.016-5.503,0.857-6.907,2.254
			c-0.11,0.11-1.491,1.839-1.719,2.171c0.033-0.111,0.055-0.23,0.088-0.341c0.609-1.991,1.448-3.844,2.32-5.541
			c0.504-0.987,1.042-1.902,1.584-2.78c0.63,0.314,3.522,1.719,5.064,1.781c1.478,0.059,3.376-0.276,4.369-1.486
			c0.972-1.185,0.872-2.994-0.459-3.878c-1.847-1.227-5.564,0.248-7.112,1.482c-0.084,0.067-0.865,0.844-1.425,1.418
			c0.251-0.393,0.503-0.803,0.751-1.174c0.928-1.397,1.863-2.619,2.7-3.694c0.481-0.608,0.928-1.148,1.351-1.649
			c0.779-0.014,3.916-0.109,5.288-0.753c1.339-0.628,2.869-1.801,3.193-3.333c0.317-1.5-0.606-3.059-2.194-3.23
			c-2.204-0.237-4.824,2.784-5.629,4.592c-0.069,0.156-0.877,2.726-0.837,2.726c0,0,0.038-0.001,0.047-0.001
			c-0.417,0.474-0.859,0.986-1.331,1.556c-0.862,1.059-1.827,2.264-2.789,3.646c-0.964,1.379-1.973,2.904-2.891,4.606
			c-0.922,1.705-1.805,3.546-2.47,5.56c-0.008,0.023-0.012,0.047-0.02,0.07c0.011-0.649-0.017-2.466-0.035-2.606
			c-0.254-1.963-1.9-5.608-4.081-6.011c-1.571-0.29-2.901,0.94-3.026,2.468c-0.128,1.56,1.003,3.121,2.106,4.107
			c1.244,1.111,4.696,2.187,4.972,2.272c-0.615,1.924-1.09,3.948-1.458,6.023c-0.212,1.186-0.388,2.387-0.55,3.594
			c-0.008-0.562-0.02-1.064-0.029-1.134c-0.255-1.964-1.901-5.608-4.081-6.011c-1.571-0.29-2.901,0.94-3.026,2.468
			c-0.128,1.56,1.003,3.122,2.106,4.107c1.119,0.999,4.044,1.976,4.822,2.224c-0.057,0.464-0.119,0.926-0.175,1.389
			c-0.266,2.225-0.521,4.447-0.839,6.618c-0.111,0.765-0.25,1.515-0.385,2.265c-0.008-0.499-0.019-0.919-0.027-0.983
			c-0.254-1.964-1.9-5.608-4.081-6.011c-1.571-0.29-2.901,0.94-3.026,2.468c-0.128,1.56,1.004,3.121,2.106,4.106
			c1.068,0.954,3.76,1.879,4.682,2.179c-0.162,0.764-0.323,1.53-0.514,2.263c-0.142,0.498-0.244,0.987-0.414,1.479
			c-0.158,0.491-0.315,0.977-0.47,1.457c-0.333,0.915-0.671,1.862-1.019,2.747c-0.237,0.617-0.474,1.201-0.711,1.79
			c0.12-0.76,0.323-2.254,0.326-2.381c0.03-1.315-0.437-3.453-1.366-4.956c0.006-0.194-0.005-0.388-0.036-0.58
			c-0.243-1.513-1.665-2.637-3.209-2.226c-2.142,0.57-3.502,4.331-3.603,6.309c-0.006,0.117,0.07,1.389,0.132,2.192
			c-0.108-0.466-0.207-0.92-0.324-1.398c-0.225-0.948-0.477-1.887-0.744-2.898c-0.146-0.484-0.294-0.973-0.444-1.466
			c-0.137-0.493-0.346-0.996-0.517-1.499c-0.424-1.159-0.91-2.312-1.425-3.463c0.829-0.199,3.764-0.947,4.943-1.851
			c1.173-0.9,2.418-2.373,2.406-3.938c-0.011-1.532-1.246-2.859-2.834-2.686c-2.204,0.239-4.117,3.751-4.517,5.69
			c-0.025,0.121-0.156,1.544-0.212,2.328c-0.315-0.69-0.626-1.38-0.967-2.067c-0.985-1.984-2.044-3.962-3.092-5.94
			c-0.321-0.606-0.634-1.213-0.95-1.819c0.296-0.068,3.804-0.881,5.124-1.894c1.173-0.9,2.418-2.373,2.406-3.938
			c-0.011-1.532-1.246-2.859-2.834-2.686c-2.204,0.239-4.117,3.751-4.517,5.69c-0.03,0.146-0.215,2.195-0.237,2.718
			c-0.694-1.336-1.374-2.675-1.99-4.021c-0.853-1.857-1.587-3.726-2.164-5.589c0.138-0.031,3.803-0.864,5.155-1.901
			c1.173-0.9,2.418-2.373,2.406-3.938c-0.011-1.533-1.246-2.859-2.834-2.686c-2.204,0.24-4.117,3.751-4.517,5.69
			c-0.031,0.152-0.229,2.357-0.237,2.759c-0.034-0.111-0.082-0.222-0.115-0.333c-0.591-1.997-0.913-4.006-1.122-5.901
			c-0.123-1.101-0.18-2.161-0.212-3.193c0.698-0.085,3.886-0.51,5.206-1.309c1.265-0.766,2.663-2.093,2.824-3.65
			c0.157-1.524-0.924-2.979-2.522-2.981c-2.217-0.004-4.504,3.276-5.115,5.159c-0.033,0.103-0.255,1.181-0.406,1.969
			c-0.007-0.466-0.023-0.947-0.021-1.393c0.003-1.677,0.109-3.212,0.214-4.571c0.066-0.772,0.141-1.469,0.218-2.12
			c0.642-0.441,3.206-2.251,3.995-3.545c0.77-1.263,1.399-3.085,0.825-4.541c-0.563-1.425-2.193-2.217-3.612-1.484
			c-1.97,1.018-2.488,4.983-2.162,6.936c0.028,0.169,0.772,2.758,0.806,2.735c0,0,0.031-0.021,0.039-0.027
			c-0.086,0.625-0.172,1.297-0.251,2.032c-0.135,1.359-0.275,2.897-0.314,4.58c-0.044,1.682-0.044,3.51,0.13,5.436
			c0.172,1.931,0.45,3.953,1.007,6c0.006,0.023,0.016,0.047,0.022,0.07c-0.348-0.548-1.375-2.047-1.467-2.154
			c-1.296-1.497-4.679-3.629-6.72-2.763c-1.47,0.625-1.901,2.385-1.163,3.728C369.088,308.332,370.893,309.011,372.356,309.224z"/>
		<path style="fill:#263238;" d="M410.378,298.807c0.034,0.022,0.708-2.586,0.731-2.756c0.273-1.961-0.352-5.911-2.348-6.875
			c-1.438-0.695-3.046,0.141-3.57,1.581c-0.535,1.471,0.143,3.276,0.947,4.517C407.081,296.732,410.375,298.806,410.378,298.807z"/>
	</g>
	<g>
		<path style="fill:#263238;" d="M93.155,392.562c-2.226,0.973-7.673,0.85-7.677,0.85c-0.057-0.001,1.171-3.565,1.274-3.781
			c1.195-2.5,4.974-6.627,8.049-6.212c2.215,0.299,3.447,2.516,2.947,4.602C97.236,390.151,95.051,391.733,93.155,392.562z"/>
		<path style="fill:#263238;" d="M91.275,408.338c-2.31,0.337-7.17-1.073-7.557-1.187c-0.767,2.721-1.775,5.451-2.948,8.157
			c-0.668,1.548-1.39,3.086-2.133,4.62c0.443-0.65,0.845-1.227,0.909-1.302c1.813-2.096,6.548-5.078,9.404-3.865
			c2.058,0.874,2.66,3.337,1.627,5.217c-1.055,1.92-3.581,2.869-5.629,3.167c-2.078,0.303-6.246-0.816-7.345-1.126
			c-0.291,0.585-0.575,1.173-0.869,1.757c-1.407,2.802-2.824,5.593-4.13,8.373c-0.461,0.98-0.878,1.961-1.3,2.941
			c0.394-0.577,0.731-1.059,0.79-1.127c1.813-2.095,6.548-5.079,9.404-3.866c2.058,0.874,2.66,3.337,1.627,5.217
			c-1.055,1.919-3.581,2.869-5.629,3.167c-1.983,0.289-5.839-0.709-7.147-1.072c-0.401,1.017-0.805,2.035-1.148,3.039
			c-0.219,0.691-0.477,1.341-0.658,2.046c-0.194,0.695-0.386,1.383-0.576,2.064c-0.318,1.326-0.654,2.692-0.932,3.993
			c-0.2,0.903-0.374,1.768-0.552,2.639c0.447-0.98,1.363-2.881,1.457-3.031c1.474-2.346,5.702-6.011,8.709-5.245
			c2.166,0.552,3.135,2.895,2.399,4.91c-0.752,2.057-3.105,3.378-5.084,3.983c-2.179,0.666-7.003,0.057-7.605-0.023
			c-0.289,1.441-0.557,2.846-0.788,4.176c-0.476,2.7-0.843,5.137-1.13,7.245h-2.024c0.343-2.187,0.783-4.744,1.347-7.583
			c0.287-1.465,0.624-3.024,0.985-4.622c-0.363-0.145-2.42-0.977-4.243-1.995c-1.588,1.72-5.658,3.733-6.185,3.989
			c0.554,1.361,1.106,2.681,1.647,3.917c1.023,2.355,1.998,4.461,2.876,6.295h-2.181c-0.745-1.668-1.551-3.532-2.388-5.579
			c-0.568-1.381-1.148-2.867-1.729-4.399c-0.584,0.122-5.359,1.092-7.585,0.59c-2.018-0.456-4.463-1.598-5.367-3.593
			c-0.885-1.954-0.093-4.363,2.026-5.075c2.941-0.988,7.431,2.352,9.076,4.582c0.097,0.132,0.991,1.676,1.538,2.66
			c-0.234-0.627-0.468-1.233-0.701-1.882c-0.469-1.28-0.9-2.57-1.369-3.958c-0.203-0.677-0.407-1.362-0.614-2.053
			c-0.22-0.681-0.365-1.428-0.553-2.149c-0.4-1.68-0.724-3.401-1.011-5.142c-1.122,0.408-5.125,1.801-7.199,1.655
			c-2.064-0.145-4.654-0.904-5.849-2.739c-1.171-1.797-0.753-4.299,1.234-5.324c2.758-1.422,7.702,1.2,9.666,3.154
			c0.123,0.122,1.374,1.683,2.045,2.553c-0.165-1.048-0.334-2.094-0.467-3.159c-0.382-3.076-0.673-6.202-0.976-9.32
			c-0.093-0.955-0.197-1.905-0.297-2.857c-0.397,0.15-5.12,1.908-7.443,1.745c-2.064-0.145-4.654-0.903-5.849-2.739
			c-1.17-1.797-0.753-4.299,1.234-5.323c2.757-1.422,7.701,1.2,9.665,3.154c0.148,0.147,1.946,2.396,2.375,2.99
			c-0.222-2.096-0.462-4.182-0.782-6.23c-0.438-2.826-1.024-5.574-1.788-8.195c-0.185,0.07-5.106,1.928-7.485,1.76
			c-2.064-0.145-4.654-0.903-5.849-2.739c-1.17-1.797-0.753-4.299,1.234-5.323c2.758-1.422,7.701,1.2,9.665,3.154
			c0.154,0.154,2.087,2.574,2.406,3.038c-0.046-0.156-0.076-0.322-0.124-0.477c-0.852-2.787-2.027-5.38-3.246-7.754
			c-0.706-1.381-1.458-2.661-2.217-3.891c-0.881,0.44-4.929,2.406-7.087,2.492c-2.068,0.083-4.725-0.387-6.115-2.08
			c-1.361-1.658-1.22-4.19,0.642-5.427c2.585-1.717,7.787,0.347,9.953,2.073c0.118,0.094,1.21,1.181,1.994,1.984
			c-0.351-0.549-0.703-1.123-1.05-1.643c-1.298-1.954-2.607-3.664-3.779-5.169c-0.673-0.851-1.299-1.606-1.891-2.307
			c-1.09-0.019-5.48-0.153-7.4-1.054c-1.873-0.879-4.015-2.521-4.468-4.664c-0.444-2.099,0.848-4.281,3.07-4.52
			c3.085-0.332,6.751,3.895,7.878,6.427c0.097,0.219,1.228,3.815,1.171,3.814c0,0-0.053-0.001-0.066-0.001
			c0.584,0.663,1.202,1.381,1.862,2.178c1.207,1.483,2.557,3.169,3.902,5.103c1.35,1.929,2.762,4.064,4.046,6.446
			c1.291,2.386,2.527,4.962,3.456,7.78c0.011,0.032,0.017,0.066,0.028,0.098c-0.016-0.909,0.024-3.452,0.049-3.646
			c0.356-2.747,2.659-7.848,5.71-8.412c2.198-0.406,4.06,1.316,4.235,3.454c0.179,2.183-1.404,4.368-2.947,5.747
			c-1.741,1.555-6.572,3.06-6.957,3.179c0.861,2.693,1.526,5.525,2.041,8.43c0.296,1.66,0.543,3.341,0.769,5.03
			c0.012-0.786,0.028-1.489,0.041-1.587c0.357-2.748,2.66-7.848,5.711-8.411c2.199-0.406,4.06,1.316,4.235,3.453
			c0.179,2.183-1.404,4.368-2.947,5.747c-1.566,1.399-5.66,2.765-6.748,3.112c0.08,0.649,0.167,1.296,0.244,1.945
			c0.372,3.114,0.73,6.223,1.174,9.262c0.156,1.071,0.349,2.12,0.538,3.17c0.011-0.698,0.026-1.286,0.038-1.376
			c0.356-2.748,2.659-7.848,5.71-8.412c2.198-0.406,4.06,1.316,4.235,3.454c0.179,2.183-1.404,4.368-2.948,5.746
			c-1.494,1.335-5.261,2.63-6.553,3.049c0.227,1.069,0.451,2.141,0.719,3.167c0.199,0.697,0.341,1.381,0.58,2.07
			c0.222,0.687,0.441,1.367,0.658,2.04c0.466,1.281,0.939,2.606,1.426,3.845c0.331,0.864,0.663,1.681,0.995,2.505
			c-0.168-1.064-0.453-3.154-0.457-3.332c-0.043-1.84,0.611-4.832,1.912-6.936c-0.008-0.272,0.008-0.543,0.051-0.812
			c0.34-2.118,2.33-3.691,4.49-3.115c2.998,0.798,4.9,6.061,5.042,8.829c0.008,0.163-0.099,1.944-0.185,3.067
			c0.151-0.652,0.29-1.287,0.454-1.957c0.314-1.326,0.667-2.64,1.041-4.056c0.204-0.677,0.412-1.361,0.621-2.051
			c0.192-0.689,0.484-1.393,0.724-2.098c0.593-1.621,1.273-3.236,1.994-4.847c-1.16-0.278-5.268-1.325-6.917-2.591
			c-1.642-1.26-3.383-3.321-3.368-5.511c0.015-2.144,1.743-4.001,3.966-3.759c3.085,0.335,5.762,5.249,6.322,7.963
			c0.035,0.169,0.218,2.161,0.297,3.258c0.441-0.965,0.876-1.931,1.354-2.892c1.379-2.777,2.861-5.544,4.327-8.312
			c0.45-0.848,0.887-1.697,1.329-2.546c-0.414-0.095-5.324-1.233-7.17-2.651c-1.642-1.26-3.383-3.321-3.368-5.511
			c0.015-2.145,1.743-4.001,3.966-3.759c3.085,0.335,5.762,5.249,6.322,7.963c0.042,0.205,0.301,3.072,0.331,3.804
			c0.971-1.87,1.922-3.743,2.785-5.627c1.194-2.599,2.221-5.214,3.029-7.821c-0.193-0.044-5.322-1.209-7.214-2.661
			c-1.642-1.259-3.383-3.321-3.367-5.511c0.015-2.145,1.743-4.001,3.966-3.759c3.085,0.335,5.762,5.249,6.322,7.963
			c0.044,0.213,0.321,3.298,0.331,3.861c0.048-0.155,0.114-0.311,0.16-0.466c0.827-2.795,1.277-5.606,1.57-8.258
			c0.173-1.541,0.252-3.024,0.297-4.468c-0.977-0.119-5.439-0.713-7.286-1.831c-1.77-1.072-3.727-2.929-3.952-5.108
			c-0.22-2.133,1.294-4.168,3.529-4.172c3.103-0.006,6.303,4.584,7.158,7.22c0.046,0.143,0.357,1.653,0.569,2.755
			c0.01-0.652,0.033-1.325,0.03-1.95c-0.004-2.346-0.153-4.495-0.299-6.397c-0.092-1.081-0.197-2.056-0.305-2.967
			c-0.898-0.618-4.487-3.151-5.591-4.961c-1.077-1.767-1.958-4.317-1.154-6.355c0.788-1.995,3.069-3.103,5.055-2.076
			c2.757,1.425,3.482,6.973,3.026,9.707c-0.04,0.236-1.081,3.859-1.128,3.827c0,0-0.044-0.03-0.054-0.037
			c0.121,0.875,0.241,1.815,0.351,2.844c0.189,1.902,0.385,4.053,0.44,6.409c0.062,2.354,0.062,4.913-0.181,7.608
			c-0.24,2.702-0.63,5.533-1.409,8.396c-0.009,0.032-0.022,0.065-0.031,0.097c0.488-0.767,1.924-2.865,2.053-3.014
			c1.813-2.095,6.547-5.078,9.403-3.866c2.058,0.874,2.66,3.337,1.627,5.217C95.848,407.091,93.322,408.039,91.275,408.338z"/>
		<path style="fill:#263238;" d="M38.066,393.76c-0.048,0.03-0.99-3.62-1.023-3.857c-0.382-2.744,0.493-8.271,3.286-9.621
			c2.013-0.973,4.263,0.197,4.997,2.212c0.749,2.059-0.201,4.584-1.325,6.322C42.68,390.856,38.07,393.758,38.066,393.76z"/>
	</g>
	<g>
		<path style="fill:#263238;" d="M133.772,297.951c-1.591,0.695-5.483,0.607-5.486,0.607c-0.04-0.001,0.836-2.548,0.91-2.702
			c0.854-1.786,3.554-4.736,5.752-4.439c1.583,0.214,2.463,1.798,2.106,3.288C136.689,296.228,135.128,297.359,133.772,297.951z"/>
		<path style="fill:#263238;" d="M132.429,309.224c-1.65,0.241-5.124-0.767-5.4-0.848c-0.548,1.944-1.269,3.895-2.106,5.829
			c-0.478,1.106-0.993,2.205-1.524,3.301c0.317-0.464,0.604-0.877,0.65-0.93c1.296-1.497,4.679-3.629,6.72-2.762
			c1.471,0.624,1.901,2.384,1.163,3.728c-0.754,1.372-2.559,2.05-4.022,2.263c-1.485,0.216-4.463-0.583-5.248-0.805
			c-0.208,0.418-0.411,0.838-0.621,1.255c-1.006,2.003-2.018,3.997-2.951,5.983c-0.329,0.7-0.627,1.401-0.929,2.102
			c0.282-0.412,0.523-0.757,0.565-0.805c1.295-1.497,4.679-3.629,6.72-2.762c1.47,0.624,1.901,2.384,1.163,3.728
			c-0.754,1.372-2.559,2.05-4.022,2.263c-1.417,0.207-4.173-0.506-5.107-0.766c-0.286,0.727-0.575,1.454-0.82,2.171
			c-0.156,0.494-0.341,0.958-0.47,1.462c-0.138,0.497-0.276,0.988-0.412,1.475c-0.227,0.948-0.468,1.924-0.666,2.853
			c-0.143,0.645-0.268,1.263-0.394,1.885c0.319-0.7,0.974-2.058,1.042-2.166c1.053-1.676,4.074-4.296,6.223-3.748
			c1.548,0.395,2.24,2.069,1.714,3.508c-0.538,1.47-2.219,2.414-3.633,2.846c-1.557,0.476-5.004,0.041-5.434-0.016
			c-0.207,1.03-0.398,2.034-0.563,2.984c-0.34,1.93-0.603,3.671-0.808,5.177h-1.446c0.245-1.563,0.559-3.39,0.963-5.419
			c0.205-1.047,0.446-2.161,0.704-3.303c-0.259-0.103-1.729-0.698-3.032-1.426c-1.135,1.229-4.043,2.667-4.419,2.85
			c0.396,0.973,0.79,1.916,1.177,2.799c0.731,1.682,1.427,3.188,2.055,4.498h-1.559c-0.533-1.192-1.108-2.524-1.707-3.987
			c-0.406-0.987-0.82-2.049-1.235-3.144c-0.417,0.087-3.829,0.78-5.42,0.421c-1.442-0.326-3.189-1.142-3.835-2.568
			c-0.632-1.396-0.066-3.118,1.448-3.627c2.102-0.706,5.31,1.681,6.485,3.274c0.07,0.094,0.708,1.198,1.099,1.901
			c-0.167-0.448-0.335-0.881-0.501-1.345c-0.335-0.914-0.643-1.836-0.978-2.828c-0.145-0.484-0.291-0.973-0.439-1.467
			c-0.157-0.487-0.261-1.021-0.395-1.536c-0.286-1.2-0.517-2.43-0.722-3.675c-0.801,0.292-3.662,1.287-5.144,1.183
			c-1.475-0.104-3.326-0.646-4.18-1.957c-0.836-1.284-0.538-3.072,0.882-3.804c1.971-1.016,5.503,0.857,6.907,2.254
			c0.088,0.087,0.982,1.202,1.461,1.825c-0.118-0.749-0.239-1.496-0.333-2.258c-0.273-2.198-0.481-4.432-0.698-6.66
			c-0.066-0.682-0.14-1.361-0.212-2.041c-0.284,0.107-3.659,1.363-5.318,1.247c-1.475-0.103-3.326-0.645-4.18-1.957
			c-0.836-1.284-0.538-3.072,0.882-3.804c1.97-1.016,5.503,0.857,6.907,2.254c0.106,0.105,1.39,1.712,1.697,2.137
			c-0.159-1.498-0.33-2.989-0.559-4.452c-0.313-2.019-0.732-3.983-1.278-5.856c-0.132,0.05-3.648,1.377-5.349,1.258
			c-1.475-0.103-3.326-0.645-4.18-1.957c-0.836-1.284-0.538-3.072,0.882-3.804c1.971-1.016,5.503,0.857,6.907,2.254
			c0.11,0.11,1.491,1.839,1.719,2.171c-0.033-0.111-0.055-0.23-0.088-0.341c-0.609-1.991-1.449-3.844-2.32-5.541
			c-0.504-0.987-1.041-1.902-1.584-2.78c-0.63,0.314-3.522,1.719-5.064,1.781c-1.478,0.059-3.376-0.276-4.369-1.486
			c-0.972-1.185-0.872-2.994,0.459-3.878c1.847-1.227,5.564,0.248,7.112,1.482c0.084,0.067,0.865,0.844,1.425,1.418
			c-0.251-0.393-0.503-0.803-0.751-1.174c-0.928-1.397-1.863-2.619-2.7-3.694c-0.481-0.608-0.928-1.148-1.351-1.649
			c-0.779-0.014-3.916-0.109-5.288-0.753c-1.339-0.628-2.869-1.801-3.193-3.333c-0.317-1.5,0.606-3.059,2.194-3.23
			c2.204-0.237,4.824,2.784,5.629,4.592c0.069,0.156,0.877,2.726,0.837,2.726c0,0-0.038-0.001-0.047-0.001
			c0.417,0.474,0.859,0.986,1.331,1.556c0.862,1.059,1.827,2.264,2.789,3.646c0.965,1.379,1.973,2.904,2.891,4.606
			c0.922,1.705,1.805,3.546,2.47,5.56c0.008,0.023,0.012,0.047,0.02,0.07c-0.011-0.649,0.017-2.466,0.035-2.606
			c0.254-1.963,1.9-5.608,4.081-6.011c1.571-0.29,2.901,0.94,3.026,2.468c0.128,1.56-1.003,3.121-2.106,4.107
			c-1.244,1.111-4.696,2.187-4.972,2.272c0.615,1.924,1.09,3.948,1.458,6.023c0.212,1.186,0.388,2.387,0.549,3.594
			c0.008-0.562,0.02-1.064,0.029-1.134c0.255-1.964,1.901-5.608,4.081-6.011c1.571-0.29,2.901,0.94,3.026,2.468
			c0.128,1.56-1.003,3.122-2.106,4.107c-1.119,0.999-4.044,1.976-4.822,2.224c0.057,0.464,0.119,0.926,0.175,1.389
			c0.266,2.225,0.521,4.447,0.839,6.618c0.111,0.765,0.25,1.515,0.385,2.265c0.008-0.499,0.019-0.919,0.027-0.983
			c0.254-1.964,1.9-5.608,4.08-6.011c1.571-0.29,2.901,0.94,3.026,2.468c0.128,1.56-1.003,3.121-2.106,4.106
			c-1.068,0.954-3.76,1.879-4.682,2.179c0.162,0.764,0.323,1.53,0.514,2.263c0.142,0.498,0.244,0.987,0.414,1.479
			c0.158,0.491,0.315,0.977,0.47,1.457c0.333,0.915,0.671,1.862,1.019,2.747c0.237,0.617,0.474,1.201,0.711,1.79
			c-0.12-0.76-0.323-2.254-0.326-2.381c-0.031-1.315,0.437-3.453,1.366-4.956c-0.006-0.194,0.006-0.388,0.036-0.58
			c0.243-1.513,1.665-2.637,3.208-2.226c2.142,0.57,3.502,4.331,3.603,6.309c0.006,0.117-0.07,1.389-0.132,2.192
			c0.108-0.466,0.207-0.92,0.324-1.398c0.225-0.948,0.477-1.887,0.744-2.898c0.146-0.484,0.294-0.973,0.443-1.466
			c0.138-0.493,0.346-0.996,0.518-1.499c0.424-1.159,0.91-2.312,1.425-3.463c-0.829-0.199-3.764-0.947-4.943-1.851
			c-1.173-0.9-2.418-2.373-2.406-3.938c0.011-1.532,1.246-2.859,2.834-2.686c2.204,0.239,4.117,3.751,4.517,5.69
			c0.025,0.121,0.156,1.544,0.212,2.328c0.315-0.69,0.626-1.38,0.967-2.067c0.985-1.984,2.044-3.962,3.092-5.94
			c0.321-0.606,0.634-1.213,0.95-1.819c-0.296-0.068-3.804-0.881-5.124-1.894c-1.173-0.9-2.418-2.373-2.406-3.938
			c0.011-1.532,1.246-2.859,2.834-2.686c2.205,0.239,4.117,3.751,4.518,5.69c0.03,0.146,0.215,2.195,0.237,2.718
			c0.694-1.336,1.373-2.675,1.99-4.021c0.853-1.857,1.587-3.726,2.164-5.589c-0.138-0.031-3.803-0.864-5.155-1.901
			c-1.173-0.9-2.417-2.373-2.406-3.938c0.011-1.533,1.246-2.859,2.834-2.686c2.205,0.24,4.117,3.751,4.517,5.69
			c0.032,0.152,0.229,2.357,0.237,2.759c0.034-0.111,0.082-0.222,0.115-0.333c0.591-1.997,0.913-4.006,1.122-5.901
			c0.123-1.101,0.18-2.161,0.212-3.193c-0.698-0.085-3.886-0.51-5.206-1.309c-1.265-0.766-2.663-2.093-2.824-3.65
			c-0.157-1.524,0.924-2.979,2.522-2.981c2.217-0.004,4.504,3.276,5.115,5.159c0.033,0.103,0.255,1.181,0.407,1.969
			c0.007-0.466,0.023-0.947,0.021-1.393c-0.003-1.677-0.109-3.212-0.214-4.571c-0.066-0.772-0.141-1.469-0.218-2.12
			c-0.642-0.441-3.206-2.251-3.995-3.545c-0.77-1.263-1.399-3.085-0.825-4.541c0.563-1.425,2.193-2.217,3.612-1.484
			c1.97,1.018,2.488,4.983,2.162,6.936c-0.028,0.169-0.772,2.758-0.806,2.735c0,0-0.032-0.021-0.039-0.027
			c0.087,0.625,0.172,1.297,0.251,2.032c0.135,1.359,0.275,2.897,0.314,4.58c0.044,1.682,0.044,3.51-0.13,5.436
			c-0.172,1.931-0.45,3.953-1.007,6c-0.006,0.023-0.016,0.047-0.022,0.07c0.349-0.548,1.375-2.047,1.467-2.154
			c1.295-1.497,4.678-3.629,6.719-2.763c1.47,0.625,1.901,2.385,1.163,3.728C135.697,308.332,133.892,309.011,132.429,309.224z"/>
		<path style="fill:#263238;" d="M94.408,298.807c-0.034,0.022-0.708-2.586-0.731-2.756c-0.273-1.961,0.352-5.911,2.348-6.875
			c1.438-0.695,3.046,0.141,3.57,1.581c0.535,1.471-0.143,3.276-0.947,4.517C97.705,296.732,94.41,298.806,94.408,298.807z"/>
	</g>
</g>
<g id="Stairs">
	<g>
		<polygon style="fill:#F0F0F0;stroke:#263238;stroke-linecap:round;stroke-linejoin:round;stroke-miterlimit:10;" points="
			286.162,110.27 218.287,110.27 207.452,159.561 296.997,159.561 		"/>
		<polygon style="fill:#E3E3E3;stroke:#263238;stroke-linecap:round;stroke-linejoin:round;stroke-miterlimit:10;" points="
			307.813,158.656 196.636,158.656 178.889,232.212 325.561,232.212 		"/>
		<g>
			
				<rect x="218.367" y="158.793" style="fill:#FFFFFF;stroke:#263238;stroke-linecap:round;stroke-linejoin:round;stroke-miterlimit:10;" width="67.716" height="8.93"/>
			
				<rect x="216.541" y="166.894" style="fill:#FFFFFF;stroke:#263238;stroke-linecap:round;stroke-linejoin:round;stroke-miterlimit:10;" width="71.367" height="9.116"/>
			
				<rect x="214.716" y="175.464" style="fill:#FFFFFF;stroke:#263238;stroke-linecap:round;stroke-linejoin:round;stroke-miterlimit:10;" width="75.017" height="9.302"/>
			
				<rect x="212.891" y="184.269" style="fill:#FFFFFF;stroke:#263238;stroke-linecap:round;stroke-linejoin:round;stroke-miterlimit:10;" width="78.668" height="9.488"/>
			
				<rect x="211.065" y="193.308" style="fill:#FFFFFF;stroke:#263238;stroke-linecap:round;stroke-linejoin:round;stroke-miterlimit:10;" width="82.319" height="9.674"/>
			
				<rect x="209.24" y="202.582" style="fill:#FFFFFF;stroke:#263238;stroke-linecap:round;stroke-linejoin:round;stroke-miterlimit:10;" width="85.969" height="9.86"/>
			
				<rect x="207.415" y="212.324" style="fill:#FFFFFF;stroke:#263238;stroke-linecap:round;stroke-linejoin:round;stroke-miterlimit:10;" width="89.62" height="10.046"/>
			
				<rect x="205.589" y="221.833" style="fill:#FFFFFF;stroke:#263238;stroke-linecap:round;stroke-linejoin:round;stroke-miterlimit:10;" width="93.27" height="10.232"/>
		</g>
		<g>
			
				<rect x="236.399" y="110.395" style="fill:#FFFFFF;stroke:#263238;stroke-linecap:round;stroke-linejoin:round;stroke-miterlimit:10;" width="31.65" height="5.899"/>
			
				<rect x="235.546" y="115.746" style="fill:#FFFFFF;stroke:#263238;stroke-linecap:round;stroke-linejoin:round;stroke-miterlimit:10;" width="33.357" height="6.022"/>
			
				<rect x="234.693" y="121.407" style="fill:#FFFFFF;stroke:#263238;stroke-linecap:round;stroke-linejoin:round;stroke-miterlimit:10;" width="35.063" height="6.144"/>
			
				<rect x="233.84" y="127.223" style="fill:#FFFFFF;stroke:#263238;stroke-linecap:round;stroke-linejoin:round;stroke-miterlimit:10;" width="36.77" height="6.267"/>
			
				<rect x="232.987" y="133.193" style="fill:#FFFFFF;stroke:#263238;stroke-linecap:round;stroke-linejoin:round;stroke-miterlimit:10;" width="38.476" height="6.39"/>
			
				<rect x="232.134" y="139.319" style="fill:#FFFFFF;stroke:#263238;stroke-linecap:round;stroke-linejoin:round;stroke-miterlimit:10;" width="40.182" height="6.513"/>
			
				<rect x="231.28" y="145.754" style="fill:#FFFFFF;stroke:#263238;stroke-linecap:round;stroke-linejoin:round;stroke-miterlimit:10;" width="41.888" height="6.636"/>
			
				<rect x="230.427" y="152.034" style="fill:#FFFFFF;stroke:#263238;stroke-linecap:round;stroke-linejoin:round;stroke-miterlimit:10;" width="43.595" height="6.759"/>
		</g>
		<polygon style="fill:#C7C7C7;stroke:#263238;stroke-linecap:round;stroke-linejoin:round;stroke-miterlimit:10;" points="
			345.938,231.7 158.512,231.7 128.592,342.12 375.857,342.12 		"/>
		<polygon style="fill:#C7C7C7;stroke:#263238;stroke-linecap:round;stroke-linejoin:round;stroke-miterlimit:10;" points="
			415.779,338.656 88.67,338.656 57.077,463.204 447.373,463.204 		"/>
		<g>
			<polygon style="fill:#FFFFFF;stroke:#263238;stroke-linecap:round;stroke-linejoin:round;stroke-miterlimit:10;" points="
				375.327,351.149 129.122,351.149 129.96,338.845 374.489,338.845 			"/>
			<polygon style="fill:#FFFFFF;stroke:#263238;stroke-linecap:round;stroke-linejoin:round;stroke-miterlimit:10;" points="
				378.46,363.988 125.989,363.988 126.87,351.283 377.579,351.283 			"/>
			<polygon style="fill:#FFFFFF;stroke:#263238;stroke-linecap:round;stroke-linejoin:round;stroke-miterlimit:10;" points="
				381.638,377.01 122.812,377.01 123.737,363.895 380.712,363.895 			"/>
			<polygon style="fill:#FFFFFF;stroke:#263238;stroke-linecap:round;stroke-linejoin:round;stroke-miterlimit:10;" points="
				384.861,390.22 119.588,390.22 120.56,376.684 383.889,376.684 			"/>
			<polygon style="fill:#FFFFFF;stroke:#263238;stroke-linecap:round;stroke-linejoin:round;stroke-miterlimit:10;" points="
				388.132,403.621 116.318,403.621 117.338,389.653 387.111,389.653 			"/>
			<polygon style="fill:#FFFFFF;stroke:#263238;stroke-linecap:round;stroke-linejoin:round;stroke-miterlimit:10;" points="
				391.52,418.168 112.929,418.168 114,403.742 390.449,403.742 			"/>
			<polygon style="fill:#FFFFFF;stroke:#263238;stroke-linecap:round;stroke-linejoin:round;stroke-miterlimit:10;" points="
				394.962,432.943 109.487,432.943 110.612,418.048 393.837,418.048 			"/>
			<polygon style="fill:#FFFFFF;stroke:#263238;stroke-linecap:round;stroke-linejoin:round;stroke-miterlimit:10;" points="
				398.459,447.954 105.99,447.954 107.171,432.575 397.279,432.575 			"/>
			<polygon style="fill:#FFFFFF;stroke:#263238;stroke-linecap:round;stroke-linejoin:round;stroke-miterlimit:10;" points="
				402.012,463.204 102.438,463.204 103.676,447.329 400.774,447.329 			"/>
		</g>
		<g>
			
				<rect x="187.26" y="231.661" style="fill:#FFFFFF;stroke:#263238;stroke-linecap:round;stroke-linejoin:round;stroke-miterlimit:10;" width="129.929" height="13.066"/>
			
				<rect x="183.758" y="243.514" style="fill:#FFFFFF;stroke:#263238;stroke-linecap:round;stroke-linejoin:round;stroke-miterlimit:10;" width="136.934" height="13.339"/>
			
				<rect x="180.255" y="256.053" style="fill:#FFFFFF;stroke:#263238;stroke-linecap:round;stroke-linejoin:round;stroke-miterlimit:10;" width="143.938" height="13.611"/>
			
				<rect x="176.753" y="268.936" style="fill:#FFFFFF;stroke:#263238;stroke-linecap:round;stroke-linejoin:round;stroke-miterlimit:10;" width="150.943" height="13.883"/>
			
				<rect x="173.251" y="282.162" style="fill:#FFFFFF;stroke:#263238;stroke-linecap:round;stroke-linejoin:round;stroke-miterlimit:10;" width="157.947" height="14.155"/>
			
				<rect x="169.749" y="295.73" style="fill:#FFFFFF;stroke:#263238;stroke-linecap:round;stroke-linejoin:round;stroke-miterlimit:10;" width="164.952" height="14.427"/>
			
				<rect x="166.246" y="309.985" style="fill:#FFFFFF;stroke:#263238;stroke-linecap:round;stroke-linejoin:round;stroke-miterlimit:10;" width="171.956" height="14.699"/>
			
				<rect x="162.744" y="323.897" style="fill:#FFFFFF;stroke:#263238;stroke-linecap:round;stroke-linejoin:round;stroke-miterlimit:10;" width="178.961" height="14.971"/>
		</g>
	</g>
</g>
<g id="Shine">
	<g>
		<g>
			
				<line style="fill:none;stroke:#263238;stroke-linecap:round;stroke-linejoin:round;stroke-miterlimit:10;" x1="155.767" y1="159.305" x2="146.819" y2="167.171"/>
			
				<line style="fill:none;stroke:#263238;stroke-linecap:round;stroke-linejoin:round;stroke-miterlimit:10;" x1="235.416" y1="89.284" x2="161.275" y2="154.463"/>
			
				<line style="fill:none;stroke:#263238;stroke-linecap:round;stroke-linejoin:round;stroke-miterlimit:10;" x1="227.627" y1="87.337" x2="177" y2="105.835"/>
			
				<line style="fill:none;stroke:#263238;stroke-linecap:round;stroke-linejoin:round;stroke-miterlimit:10;" x1="181.264" y1="79.76" x2="148.766" y2="82.469"/>
			
				<line style="fill:none;stroke:#263238;stroke-linecap:round;stroke-linejoin:round;stroke-miterlimit:10;" x1="218.865" y1="76.627" x2="184.888" y2="79.459"/>
			
				<line style="fill:none;stroke:#263238;stroke-linecap:round;stroke-linejoin:round;stroke-miterlimit:10;" x1="131.873" y1="33.527" x2="123.452" y2="30.868"/>
			
				<line style="fill:none;stroke:#263238;stroke-linecap:round;stroke-linejoin:round;stroke-miterlimit:10;" x1="204.456" y1="56.448" x2="134.296" y2="34.292"/>
			
				<line style="fill:none;stroke:#263238;stroke-linecap:round;stroke-linejoin:round;stroke-miterlimit:10;" x1="215.944" y1="60.076" x2="209.167" y2="57.936"/>
		</g>
		<g>
			
				<line style="fill:none;stroke:#263238;stroke-linecap:round;stroke-linejoin:round;stroke-miterlimit:10;" x1="352.062" y1="159.305" x2="361.01" y2="167.171"/>
			
				<line style="fill:none;stroke:#263238;stroke-linecap:round;stroke-linejoin:round;stroke-miterlimit:10;" x1="272.413" y1="89.284" x2="346.554" y2="154.463"/>
			
				<line style="fill:none;stroke:#263238;stroke-linecap:round;stroke-linejoin:round;stroke-miterlimit:10;" x1="280.202" y1="87.337" x2="330.828" y2="105.835"/>
			
				<line style="fill:none;stroke:#263238;stroke-linecap:round;stroke-linejoin:round;stroke-miterlimit:10;" x1="326.565" y1="79.76" x2="359.063" y2="82.469"/>
			
				<line style="fill:none;stroke:#263238;stroke-linecap:round;stroke-linejoin:round;stroke-miterlimit:10;" x1="288.964" y1="76.627" x2="322.941" y2="79.459"/>
			
				<line style="fill:none;stroke:#263238;stroke-linecap:round;stroke-linejoin:round;stroke-miterlimit:10;" x1="375.955" y1="33.527" x2="384.376" y2="30.868"/>
			
				<line style="fill:none;stroke:#263238;stroke-linecap:round;stroke-linejoin:round;stroke-miterlimit:10;" x1="303.372" y1="56.448" x2="373.533" y2="34.292"/>
			
				<line style="fill:none;stroke:#263238;stroke-linecap:round;stroke-linejoin:round;stroke-miterlimit:10;" x1="291.885" y1="60.076" x2="298.662" y2="57.936"/>
		</g>
	</g>
</g>
<g id="Character">
	<g>
		<path style="fill:#FFFFFF;stroke:#263238;stroke-linecap:round;stroke-linejoin:round;stroke-miterlimit:10;" d="M241.836,213.923
			c0,0-4.006-1.178-3.77,2.357c0.236,3.535,4.477,5.891,4.477,5.891L241.836,213.923z"/>
		<path style="fill:#FFFFFF;stroke:#263238;stroke-linecap:round;stroke-linejoin:round;stroke-miterlimit:10;" d="M266.344,213.923
			c0,0,3.299-1.65,3.299,1.414s-3.535,6.127-3.535,6.127L266.344,213.923z"/>
		<path style="fill:#263238;stroke:#263238;stroke-linecap:round;stroke-linejoin:round;stroke-miterlimit:10;" d="M241.365,204.261
			c0,0,0.236,16.731,1.178,19.795c0.943,3.063,3.77,7.07,6.363,7.07c2.592,0,11.311-0.707,12.961-1.649
			c1.649-0.943,4.242-4.242,4.242-8.012c0-3.77,0.471-13.197,0.471-13.197s1.414-0.943,2.357-3.063
			c0.943-2.121-2.357-5.184-3.063-5.42c-0.707-0.236-3.299-0.943-3.299-0.943s1.65-1.414,1.178-2.592
			c-0.471-1.178-4.949-1.885-6.834-1.885c-1.885,0-4.242,1.414-4.242,1.414s-7.541-0.236-9.897,2.592
			C240.423,201.197,241.365,204.261,241.365,204.261z"/>
		<path style="fill:#92E3A9;stroke:#263238;stroke-linecap:round;stroke-linejoin:round;stroke-miterlimit:10;" d="M267.758,234.425
			l-30.164,0.471c0,0,1.414-4.477,3.064-4.949c1.65-0.471,18.617-0.943,22.152-0.471
			C266.344,229.947,267.758,234.425,267.758,234.425z"/>
		<path style="fill:#263238;stroke:#263238;stroke-linecap:round;stroke-linejoin:round;stroke-miterlimit:10;" d="M257.25,433.453
			c0,0-1.275,13.697-0.187,14.132c1.087,0.435,4.35,1.957,12.179,0c2.078-0.52-1.74-14.571-1.74-14.571
			S262.439,436.068,257.25,433.453z"/>
		<path style="fill:#92E3A9;stroke:#263238;stroke-linecap:round;stroke-linejoin:round;stroke-miterlimit:10;" d="M220.958,327.369
			l3.988,59.622c0,0-2.393,10.967-0.199,20.738c2.193,9.771,5.783,44.068,5.783,44.068s1.795-3.39,7.777-3.988
			c5.982-0.598,7.179,1.795,7.179,1.795s-0.399-25.923-0.399-28.914c0-2.991,2.393-21.935,2.193-27.717
			c-0.199-5.783-1.595-12.363-1.595-12.363l1.396-36.092l3.19-0.399c0,0-2.193,29.711-0.798,36.491
			c1.396,6.78,4.786,27.917,4.985,29.711c0.199,1.795,2.792,23.131,2.792,23.131s5.185,1.396,7.577,1.197
			c2.393-0.199,3.988-1.994,3.988-1.994s4.387-32.104,3.988-37.089c-0.399-4.985-4.985-16.949-4.985-17.947
			c0-0.997-1.196-7.777-1.196-7.777s8.375-23.33,9.771-31.705c1.396-8.375,1.595-12.164,1.595-12.164s-23.729,3.789-35.494,3.789
			C230.729,329.762,220.958,327.369,220.958,327.369z"/>
		<g>
			<path style="fill:none;stroke:#263238;stroke-linecap:round;stroke-linejoin:round;stroke-miterlimit:10;" d="M231.694,386.684
				c2.732-2.251,6.332-4.985,10-7.101"/>
			<path style="fill:none;stroke:#263238;stroke-linecap:round;stroke-linejoin:round;stroke-miterlimit:10;" d="M226.888,390.905
				c0,0,1.047-1.005,2.758-2.49"/>
			
				<line style="fill:none;stroke:#263238;stroke-linecap:round;stroke-linejoin:round;stroke-miterlimit:10;" x1="231.242" y1="382.776" x2="243.726" y2="374.357"/>
		</g>
		<path style="fill:#263238;stroke:#263238;stroke-linecap:round;stroke-linejoin:round;stroke-miterlimit:10;" d="M277.988,325.974
			c0,0-23.729,3.789-35.494,3.789c-11.765,0-21.536-2.393-21.536-2.393l0.237,3.548c3.452,2.601,9.598,7.365,14.638,11.986
			c5.935,5.44,9.695,7.724,10.983,8.43l0.264-6.816l3.191-0.399c0,0-2.193,29.711-0.798,36.491
			c0.643,3.124,1.709,9.294,2.692,15.216c1.462-4.627,4.274-10.165,9.438-10.699c3.68-0.381,6.84,0.795,9.292,2.318
			c-1.411-4.64-3.077-9.225-3.077-9.826c0-0.997-1.197-7.777-1.197-7.777s8.375-23.33,9.771-31.705
			C277.788,329.762,277.988,325.974,277.988,325.974z"/>
		<g>
			<path style="fill:#FFFFFF;stroke:#263238;stroke-linecap:round;stroke-linejoin:round;stroke-miterlimit:10;" d="
				M214.006,315.672c0,0,1.472,2.78,2.453,3.107c0.981,0.327,1.799,3.27,1.799,6.214c0,2.943-0.981,3.27-0.981,3.27
				s1.472,1.799,0.818,3.924c-0.654,2.126-4.905,3.597-6.704,4.251c-1.799,0.654-4.578-2.289-5.723-3.761
				c-1.145-1.472-0.327-13.245-0.327-13.245S213.352,317.307,214.006,315.672z"/>
			<path style="fill:none;stroke:#263238;stroke-linecap:round;stroke-linejoin:round;stroke-miterlimit:10;" d="M217.276,328.263
				c0,0-3.27,1.308-3.761,1.635c-0.491,0.327-2.289-1.799-1.635-2.453c0.654-0.654,3.107-2.289,3.107-2.289"/>
			<path style="fill:none;stroke:#263238;stroke-linecap:round;stroke-linejoin:round;stroke-miterlimit:10;" d="M210.572,322.376
				c0,0,3.434,0.817,2.289,3.924"/>
			<path style="fill:none;stroke:#263238;stroke-linecap:round;stroke-linejoin:round;stroke-miterlimit:10;" d="M212.534,329.407
				c0,0-3.434,1.308-3.434,2.616c0,1.308,1.635,2.943,2.616,2.78c0.981-0.164-0.163-1.472-0.163-1.472"/>
		</g>
		<g>
			<path style="fill:none;stroke:#263238;stroke-linecap:round;stroke-linejoin:round;stroke-miterlimit:10;" d="M294.291,322.376
				c0,0-2.78,3.27-3.597,5.069c-0.818,1.799-2.453,3.434-2.126,4.578c0.327,1.145,0.491,1.962,0.491,1.962s-1.472,3.434,0,4.415
				s2.616,1.145,3.27,1.145c0.654,0,3.27,2.126,5.069,1.799c1.799-0.327,4.415-1.145,4.578-6.704
				c0.163-5.56,0.818-11.936,0.818-11.936S296.907,322.376,294.291,322.376z"/>
			<path style="fill:none;stroke:#263238;stroke-linecap:round;stroke-linejoin:round;stroke-miterlimit:10;" d="M289.059,333.986
				c0,0,4.415,2.78,5.723,2.78s2.289-1.962,1.308-2.943s-3.761-2.78-3.761-2.78"/>
			<path style="fill:none;stroke:#263238;stroke-linecap:round;stroke-linejoin:round;stroke-miterlimit:10;" d="M297.725,327.609
				c0,0-2.616,2.943-1.635,6.214"/>
			<path style="fill:none;stroke:#263238;stroke-linecap:round;stroke-linejoin:round;stroke-miterlimit:10;" d="M296.58,334.803
				c0,0,3.107,0.817,3.27,1.799c0.164,0.981-0.163,2.616-0.818,2.616c-0.654,0-0.981-1.145-0.981-1.145"/>
		</g>
		<g>
			<path style="fill:#92E3A9;stroke:#263238;stroke-linecap:round;stroke-linejoin:round;stroke-miterlimit:10;" d="
				M305.231,321.149c0,0-1.183,2.822-4.005,4.238c-2.831,1.416-7.777-2.357-7.777-2.357l-5.188-30.401l-11.307-16.961l-0.95,24.739
				c0,0,4.48,27.337,3.772,27.812c-0.708,0.466-11.075,5.179-28.511,7.069c-17.436,1.882-32.758-6.362-32.758-6.362l7.302-28.287
				l-3.297-20.966l-8.131,12.742l1.062,21.898c0,0-1.882,4.946-5.179,5.654c-3.307,0.708-6.371,0-6.371,0s0-0.028-0.009-0.074
				c-0.028-0.14-0.074-0.456-0.149-0.931c-0.037-0.214-0.075-0.456-0.121-0.736c-0.065-0.438-0.149-0.941-0.242-1.509
				c-0.074-0.428-0.14-0.885-0.223-1.378c-0.075-0.484-0.158-0.997-0.242-1.537v-0.009c-1.276-7.917-3.325-20.733-3.483-21.87
				v-0.046c0-2.217,15.322-41.672,16.253-42.603c0.95-0.941,0.95-4.005,4.247-6.129c3.297-2.124,20.976-9.426,20.976-9.426
				c6.827-2.124,25.679,0.708,25.679,0.708s7.312,4.238,8.252,4.713c0.941,0.475,11.075,6.594,13.431,8.01
				c2.357,1.416,2.589,4.005,3.53,7.07c0.95,3.064,7.777,25.689,9.901,29.694C303.815,287.916,305.231,321.149,305.231,321.149z"/>
			<path style="fill:#263238;stroke:#263238;stroke-linecap:round;stroke-linejoin:round;stroke-miterlimit:10;" d="M214.38,292.414
				l1.062,21.898c0,0-1.882,4.946-5.179,5.654c-3.307,0.708-6.371,0-6.371,0s0-0.028-0.009-0.074
				c-0.028-0.14-0.074-0.456-0.149-0.931c-0.037-0.214-0.075-0.466-0.121-0.736c-0.065-0.438-0.149-0.941-0.242-1.509
				c-0.065-0.428-0.14-0.885-0.223-1.378c-0.075-0.484-0.158-0.997-0.242-1.537v-0.009c-1.276-7.917-3.325-20.733-3.483-21.87
				v-0.046c1.36,0.764,3.893,2.012,5.505,1.723c1.239-0.224,2.72-1.863,3.819-3.307c0.214-0.661,0.391-1.155,0.494-1.444
				c1.183-3.167,8.094-22.373,8.094-22.373l5.179,13.198L214.38,292.414z"/>
			
				<line style="fill:none;stroke:#263238;stroke-linecap:round;stroke-linejoin:round;stroke-miterlimit:10;" x1="218.271" y1="257.754" x2="222.513" y2="279.67"/>
			<polyline style="fill:none;stroke:#263238;stroke-linecap:round;stroke-linejoin:round;stroke-miterlimit:10;" points="
				280.327,260.46 276.949,275.664 284.018,260.582 			"/>
			
				<line style="fill:none;stroke:#263238;stroke-linecap:round;stroke-linejoin:round;stroke-miterlimit:10;" x1="281.662" y1="254.455" x2="281.123" y2="256.879"/>
			<path style="fill:none;stroke:#263238;stroke-linecap:round;stroke-linejoin:round;stroke-miterlimit:10;" d="M249.613,262.703
				c0,0,13.668,24.979,16.26,26.629"/>
			
				<line style="fill:none;stroke:#263238;stroke-linecap:round;stroke-linejoin:round;stroke-miterlimit:10;" x1="264.25" y1="291.454" x2="266.109" y2="293.102"/>
			
				<line style="fill:none;stroke:#263238;stroke-linecap:round;stroke-linejoin:round;stroke-miterlimit:10;" x1="253.619" y1="282.027" x2="262.323" y2="289.746"/>
			<path style="fill:#263238;stroke:#263238;stroke-linecap:round;stroke-linejoin:round;stroke-miterlimit:10;" d="
				M305.227,321.145c0,0-0.381-8.94-1.043-18.104c-4.084-1.399-8.777-3.366-10.504-5.462c-3.299-4.006-15.318-20.266-15.318-20.266
				l0.025,0.509l9.872,14.808l5.184,30.399c0,0,4.949,3.771,7.777,2.357C304.049,323.973,305.227,321.145,305.227,321.145z"/>
		</g>
		<g>
			<path style="fill:#263238;stroke:#263238;stroke-linecap:round;stroke-linejoin:round;stroke-miterlimit:10;" d="
				M230.529,451.798l-0.435,7.095c0,0-3.48,4.785-2.61,7.395c0.87,2.61,4.35,2.175,9.569,2.175c5.22,0,8.917-3.697,8.917-6.96
				c0-3.262-0.486-11.899-0.486-11.899s-2.229-2.004-7.179-1.795C233.356,448.019,230.529,451.798,230.529,451.798z"/>
			<path style="fill:#FFFFFF;stroke:#263238;stroke-linecap:round;stroke-linejoin:round;stroke-miterlimit:10;" d="
				M244.695,464.911c-1.357-1.013-3.701-2.183-6.554-1.232c-3.817,1.272-6.117,3.602-8.927,4.335c1.677,0.637,4.371,0.45,7.84,0.45
				C240.445,468.463,243.186,466.899,244.695,464.911z"/>
		</g>
	</g>
</g>
<g id="Trophy">
	<g>
		
			<rect x="249.533" y="80.852" style="fill:#92E3A9;stroke:#263238;stroke-linecap:round;stroke-linejoin:round;stroke-miterlimit:10;" width="5.356" height="22.82"/>
		<polygon style="fill:#92E3A9;stroke:#263238;stroke-linecap:round;stroke-linejoin:round;stroke-miterlimit:10;" points="
			260.128,108.562 244.294,108.562 246.157,99.714 258.265,99.714 		"/>
		<polygon style="fill:#92E3A9;stroke:#263238;stroke-linecap:round;stroke-linejoin:round;stroke-miterlimit:10;" points="
			269.675,112.288 234.747,112.288 238.473,104.138 265.95,104.138 		"/>
		<path style="fill:#92E3A9;stroke:#263238;stroke-linecap:round;stroke-linejoin:round;stroke-miterlimit:10;" d="M234.514,56.696
			c-6.816,0-12.341,5.63-12.341,12.574s5.525,12.574,12.341,12.574c6.816,0,12.341-5.63,12.341-12.574S241.33,56.696,234.514,56.696
			z M234.514,78.649c-5.084,0-9.205-4.199-9.205-9.379c0-5.18,4.121-9.379,9.205-9.379c5.084,0,9.205,4.199,9.205,9.379
			C243.719,74.45,239.598,78.649,234.514,78.649z"/>
		<path style="fill:#92E3A9;stroke:#263238;stroke-linecap:round;stroke-linejoin:round;stroke-miterlimit:10;" d="M271.771,56.696
			c-6.816,0-12.341,5.63-12.341,12.574s5.525,12.574,12.341,12.574c6.816,0,12.341-5.63,12.341-12.574
			S278.587,56.696,271.771,56.696z M271.771,78.649c-5.084,0-9.205-4.199-9.205-9.379c0-5.18,4.121-9.379,9.205-9.379
			c5.084,0,9.205,4.199,9.205,9.379C280.976,74.45,276.855,78.649,271.771,78.649z"/>
		<path style="fill:#92E3A9;stroke:#263238;stroke-linecap:round;stroke-linejoin:round;stroke-miterlimit:10;" d="M252.211,87.139
			L252.211,87.139c-8.616,0-15.601-6.985-15.601-15.601V55.471h31.203v16.067C267.813,80.154,260.828,87.139,252.211,87.139z"/>
		<g>
			<g>
				<polygon style="fill:#263238;stroke:#263238;stroke-linecap:round;stroke-linejoin:round;stroke-miterlimit:10;" points="
					241.345,64.037 247.939,75.708 249.687,71.801 253.969,72.498 245.019,61.274 				"/>
				<polygon style="fill:#263238;stroke:#263238;stroke-linecap:round;stroke-linejoin:round;stroke-miterlimit:10;" points="
					240.989,62.659 238.692,75.866 242.52,73.952 245.391,77.206 245.583,62.851 				"/>
				<path style="fill:#FFFFFF;stroke:#263238;stroke-linecap:round;stroke-linejoin:round;stroke-miterlimit:10;" d="M250.75,59.214
					c0-3.7-2.999-6.699-6.699-6.699c-3.7,0-6.699,2.999-6.699,6.699c0,3.7,2.999,6.699,6.699,6.699
					C247.751,65.913,250.75,62.914,250.75,59.214z"/>
				<path style="fill:#FFFFFF;stroke:#263238;stroke-linecap:round;stroke-linejoin:round;stroke-miterlimit:10;" d="
					M249.219,59.214c0-2.854-2.314-5.168-5.168-5.168c-2.854,0-5.168,2.314-5.168,5.168c0,2.854,2.314,5.168,5.168,5.168
					C246.906,64.382,249.219,62.068,249.219,59.214z"/>
			</g>
			<g>
				<path style="fill:#263238;" d="M242.539,56.615c0.817,0,1-0.394,1.163-0.846h0.711v6.726h-1.057v-5.131h-0.817V56.615z"/>
			</g>
		</g>
	</g>
</g>
<g id="Clouds">
	<g>
		<path style="fill:#FFFFFF;stroke:#000000;stroke-miterlimit:10;" d="M299.44,220.719c-0.801-4.544-1.957-15.819,4.901-21.35
			c8.709-7.023,14.889,5.618,22.474-4.214c7.585-9.832,9.832-31.183,32.306-30.902s24.159,12.923,24.159,17.136
			c0,4.214,6.742,7.304,8.147,7.304c1.405,0,9.271-3.652,12.08,4.495c2.809,8.147,0.904,12.859,5.368,13.031
			c4.464,0.172,10.009-5.917,16.085-2.872c6.077,3.044,6.077,9.506,8.605,11.753c2.528,2.247,6.742-1.686,12.361,0.562
			c3.405,1.362,4.431,3.544,4.716,5.057H299.44z"/>
		<path style="fill:#FFFFFF;stroke:#000000;stroke-miterlimit:10;" d="M309.923,70.843c-0.263-1.493-0.643-5.198,1.611-7.016
			c2.862-2.308,4.893,1.846,7.385-1.385c2.492-3.231,3.231-10.247,10.616-10.154c7.385,0.092,7.939,4.246,7.939,5.631
			c0,1.385,2.215,2.4,2.677,2.4c0.461,0,3.046-1.2,3.969,1.477c0.923,2.677,0.297,4.225,1.764,4.282
			c1.467,0.056,3.289-1.944,5.286-0.944c1.997,1,1.997,3.124,2.828,3.862c0.831,0.739,2.215-0.554,4.062,0.185
			c1.119,0.448,1.456,1.165,1.55,1.662H309.923z"/>
		<path style="fill:#FFFFFF;stroke:#000000;stroke-miterlimit:10;" d="M297.982,134.126c-0.489-2.772-1.194-9.65,2.99-13.024
			c5.312-4.284,9.082,3.427,13.71-2.571c4.627-5.998,5.998-19.022,19.707-18.85c13.709,0.171,14.738,7.883,14.738,10.453
			c0,2.57,4.113,4.456,4.97,4.456s5.655-2.228,7.369,2.742c1.714,4.97,0.552,7.844,3.275,7.949c2.723,0.105,6.105-3.609,9.812-1.752
			c3.707,1.857,3.707,5.799,5.249,7.17c1.542,1.371,4.113-1.028,7.54,0.343c2.077,0.831,2.703,2.162,2.877,3.085H297.982z"/>
		<path style="fill:#FFFFFF;stroke:#000000;stroke-miterlimit:10;" d="M221.516,50.871c0.353-2.001,0.862-6.967-2.159-9.403
			c-3.836-3.093-6.558,2.475-9.898-1.856c-3.341-4.331-4.33-13.734-14.229-13.61c-9.898,0.124-10.641,5.692-10.641,7.547
			c0,1.856-2.969,3.217-3.588,3.217c-0.619,0-4.083-1.609-5.32,1.98c-1.237,3.588-0.398,5.664-2.364,5.74
			c-1.966,0.076-4.408-2.606-7.085-1.265c-2.676,1.341-2.676,4.187-3.79,5.177c-1.113,0.99-2.969-0.742-5.444,0.247
			c-1.5,0.6-1.952,1.561-2.077,2.227H221.516z"/>
		<path style="fill:#FFFFFF;stroke:#000000;stroke-miterlimit:10;" d="M238.556,189.384c0.986-5.595,2.41-19.478-6.035-26.288
			c-10.723-8.648-18.333,6.918-27.672-5.189c-9.339-12.106-12.106-38.395-39.779-38.049c-27.672,0.346-29.747,15.911-29.747,21.1
			c0,5.189-8.302,8.993-10.031,8.993s-11.415-4.497-14.874,5.534c-3.459,10.031-1.114,15.833-6.61,16.046
			c-5.496,0.212-12.324-7.285-19.806-3.537c-7.482,3.749-7.482,11.704-10.595,14.471c-3.113,2.767-8.302-2.075-15.22,0.692
			c-4.192,1.677-5.456,4.364-5.807,6.226H238.556z"/>
		<path style="fill:#FFFFFF;stroke:#000000;stroke-miterlimit:10;" d="M168.877,132.72c0.312-1.772,0.763-6.168-1.911-8.324
			c-3.395-2.738-5.805,2.191-8.763-1.643c-2.957-3.834-3.834-12.158-12.596-12.049c-8.763,0.109-9.42,5.038-9.42,6.681
			c0,1.643-2.629,2.848-3.176,2.848c-0.548,0-3.615-1.424-4.71,1.753c-1.095,3.176-0.353,5.014-2.093,5.081
			c-1.741,0.067-3.902-2.307-6.272-1.12s-2.369,3.706-3.355,4.583c-0.986,0.876-2.629-0.657-4.819,0.219
			c-1.327,0.531-1.728,1.382-1.839,1.972H168.877z"/>
	</g>
</g>
</svg>
